<?xml version="1.0" encoding="UTF-8"?>
<svg id="Layer_1" data-name="Layer 1" xmlns="http://www.w3.org/2000/svg" viewBox="0 0 288 77">
  <defs>
    <style>
      .cls-1 {
        fill: #fff;
      }

      .cls-2 {
        stroke-dasharray: 12.56 12.56;
      }

      .cls-2, .cls-3, .cls-4 {
        fill: none;
        stroke: #fff;
        stroke-width: 1.2px;
      }

      .cls-4 {
        stroke-dasharray: 13.04 13.04;
      }
    </style>
  </defs>
  <g>
    <polyline class="cls-3" points=".6 7.1 .6 .6 7.1 .6"/>
    <line class="cls-4" x1="20.14" y1=".6" x2="274.38" y2=".6"/>
    <polyline class="cls-3" points="280.9 .6 287.4 .6 287.4 7.1"/>
    <line class="cls-2" x1="287.4" y1="19.66" x2="287.4" y2="63.62"/>
    <polyline class="cls-3" points="287.4 69.9 287.4 76.4 280.9 76.4"/>
    <line class="cls-4" x1="267.86" y1="76.4" x2="13.62" y2="76.4"/>
    <polyline class="cls-3" points="7.1 76.4 .6 76.4 .6 69.9"/>
    <line class="cls-2" x1=".6" y1="57.34" x2=".6" y2="13.38"/>
  </g>
  <path class="cls-1" d="M97.8,42.63v-2.62l7.72-12.19h2.18v3.73h-1.33l-5.19,8.23v.14h10.77v2.71h-14.14ZM106.47,46v-4.17l.04-1.17v-12.84h3.11v18.18h-3.14ZM121.83,46l-3.85-13.64h3.28l2.4,9.59h.12l2.45-9.59h3.24l2.45,9.53h.13l2.36-9.53h3.29l-3.86,13.64h-3.35l-2.56-9.22h-.19l-2.56,9.22h-3.36ZM144.58,46.27c-1.37,0-2.55-.28-3.54-.85-.99-.57-1.75-1.38-2.28-2.43-.53-1.05-.8-2.29-.8-3.72s.27-2.63.8-3.69c.54-1.07,1.29-1.89,2.26-2.49.96-.6,2.1-.9,3.4-.9.84,0,1.63.14,2.38.41.75.27,1.41.68,1.99,1.24.58.56,1.04,1.28,1.37,2.15.33.86.5,1.89.5,3.09v.99h-11.18v-2.17h8.1c0-.62-.14-1.16-.4-1.64-.26-.49-.62-.87-1.09-1.15-.46-.28-1-.42-1.62-.42-.66,0-1.23.16-1.73.48-.5.31-.88.73-1.16,1.24-.27.51-.41,1.07-.42,1.68v1.89c0,.79.15,1.47.43,2.04.29.56.7.99,1.22,1.3.52.3,1.13.44,1.83.44.47,0,.89-.07,1.27-.2.38-.14.71-.33.99-.59.28-.26.49-.58.63-.97l3,.34c-.19.79-.55,1.49-1.08,2.08-.53.59-1.2,1.04-2.02,1.37-.82.32-1.76.48-2.82.48h0ZM158.4,46.27c-1.37,0-2.55-.28-3.54-.85-.99-.57-1.75-1.38-2.28-2.43-.53-1.05-.8-2.29-.8-3.72s.27-2.63.8-3.69c.54-1.07,1.29-1.89,2.26-2.49.96-.6,2.1-.9,3.4-.9.84,0,1.63.14,2.38.41.75.27,1.41.68,1.99,1.24.58.56,1.04,1.28,1.37,2.15.33.86.5,1.89.5,3.09v.99h-11.18v-2.17h8.1c0-.62-.14-1.16-.4-1.64-.26-.49-.62-.87-1.09-1.15-.46-.28-1-.42-1.62-.42-.66,0-1.23.16-1.73.48-.5.31-.88.73-1.16,1.24-.27.51-.41,1.07-.42,1.68v1.89c0,.79.15,1.47.43,2.04.29.56.7.99,1.22,1.3.52.3,1.13.44,1.83.44.47,0,.89-.07,1.27-.2.38-.14.71-.33.99-.59.28-.26.49-.58.63-.97l3,.34c-.19.79-.55,1.49-1.08,2.08-.53.59-1.2,1.04-2.02,1.37-.82.32-1.76.48-2.82.48h0ZM169.12,41.72v-3.88s.51,0,.51,0l4.9-5.48h3.76l-6.03,6.71h-.67l-2.47,2.65ZM166.19,46v-18.18h3.21v18.18h-3.21ZM174.74,46l-4.44-6.21,2.17-2.26,6.12,8.47h-3.84ZM190.2,35.97l-2.93.32c-.08-.3-.23-.57-.43-.83-.2-.26-.47-.47-.82-.63s-.76-.24-1.26-.24c-.67,0-1.23.15-1.69.44-.45.29-.67.67-.67,1.13,0,.4.14.72.43.97.3.25.8.45,1.49.61l2.33.5c1.29.28,2.25.72,2.88,1.32.63.6.95,1.39.96,2.37,0,.86-.26,1.62-.76,2.27-.49.65-1.18,1.16-2.05,1.53-.88.37-1.88.55-3.02.55-1.67,0-3.01-.35-4.03-1.05-1.02-.7-1.62-1.68-1.82-2.94l3.13-.3c.14.62.44,1.08.91,1.39.46.31,1.06.47,1.8.47s1.38-.16,1.84-.47c.47-.31.7-.7.7-1.16,0-.39-.15-.71-.45-.97-.3-.25-.76-.45-1.38-.59l-2.33-.49c-1.31-.27-2.28-.73-2.9-1.38-.63-.65-.94-1.47-.93-2.47,0-.84.22-1.57.68-2.18.47-.62,1.12-1.1,1.94-1.44.83-.34,1.8-.51,2.88-.51,1.6,0,2.86.34,3.77,1.02.92.68,1.49,1.6,1.71,2.76h0Z"/>
</svg>