<?xml version="1.0" encoding="UTF-8"?>
<svg id="Layer_1" data-name="Layer 1" xmlns="http://www.w3.org/2000/svg" viewBox="0 0 288 77">
  <defs>
    <style>
      .cls-1 {
        fill: #fff;
      }

      .cls-2 {
        stroke-dasharray: 12.56 12.56;
      }

      .cls-2, .cls-3, .cls-4 {
        fill: none;
        stroke: #fff;
        stroke-width: 1.2px;
      }

      .cls-4 {
        stroke-dasharray: 13.04 13.04;
      }
    </style>
  </defs>
  <g>
    <polyline class="cls-3" points=".6 7.1 .6 .6 7.1 .6"/>
    <line class="cls-4" x1="20.14" y1=".6" x2="274.38" y2=".6"/>
    <polyline class="cls-3" points="280.9 .6 287.4 .6 287.4 7.1"/>
    <line class="cls-2" x1="287.4" y1="19.66" x2="287.4" y2="63.62"/>
    <polyline class="cls-3" points="287.4 69.9 287.4 76.4 280.9 76.4"/>
    <line class="cls-4" x1="267.86" y1="76.4" x2="13.62" y2="76.4"/>
    <polyline class="cls-3" points="7.1 76.4 .6 76.4 .6 69.9"/>
    <line class="cls-2" x1=".6" y1="57.34" x2=".6" y2="13.38"/>
  </g>
  <path class="cls-1" d="M95.63,46v-18.18h11.65v2.76h-8.35v4.94h7.56v2.76h-7.56v7.72h-3.29ZM114.17,46.27c-1.37,0-2.55-.28-3.54-.85-.99-.57-1.75-1.39-2.28-2.43-.53-1.05-.8-2.29-.8-3.72s.27-2.63.8-3.69c.54-1.07,1.29-1.89,2.26-2.49.96-.6,2.1-.9,3.4-.9.84,0,1.63.14,2.38.41.75.27,1.42.68,1.99,1.24.58.56,1.04,1.28,1.37,2.15.33.86.5,1.89.5,3.09v.99h-11.18v-2.17h8.1c0-.62-.14-1.16-.4-1.64-.26-.49-.62-.87-1.09-1.15-.46-.28-1-.42-1.62-.42-.66,0-1.23.16-1.73.48-.5.31-.89.73-1.16,1.24-.27.51-.41,1.07-.42,1.68v1.89c0,.79.15,1.47.43,2.04.29.56.69.99,1.22,1.3.52.3,1.13.44,1.83.44.47,0,.89-.07,1.27-.2.38-.14.71-.33.99-.59.28-.26.49-.58.63-.97l3,.34c-.19.79-.55,1.49-1.08,2.08-.53.59-1.2,1.04-2.02,1.37-.82.32-1.76.48-2.82.48ZM122.1,46v-18.18h3.21v6.8h.13c.17-.33.4-.68.7-1.06.3-.38.71-.7,1.22-.97.51-.27,1.17-.41,1.97-.41,1.05,0,2,.27,2.85.81.85.53,1.53,1.32,2.02,2.37.5,1.04.75,2.32.75,3.84s-.25,2.77-.74,3.82c-.49,1.05-1.16,1.85-2.01,2.4-.85.55-1.81.83-2.88.83-.78,0-1.43-.13-1.94-.39-.51-.26-.93-.57-1.24-.94-.31-.37-.55-.73-.72-1.06h-.19v2.15h-3.16ZM125.25,39.18c0,.88.12,1.65.37,2.32.25.66.62,1.18,1.09,1.55.48.37,1.06.55,1.74.55s1.3-.19,1.78-.57c.48-.38.84-.91,1.08-1.57.25-.67.37-1.43.37-2.28s-.12-1.6-.36-2.26c-.24-.66-.6-1.17-1.08-1.54-.48-.37-1.08-.56-1.79-.56s-1.27.18-1.75.54c-.48.36-.84.87-1.09,1.52-.24.65-.36,1.42-.36,2.3ZM141.87,46v-2.38l6.31-6.19c.6-.61,1.11-1.15,1.51-1.62.4-.47.7-.93.91-1.38.2-.44.3-.92.3-1.42,0-.57-.13-1.07-.39-1.47-.26-.41-.62-.73-1.07-.96-.46-.22-.97-.34-1.55-.34s-1.12.12-1.57.37c-.45.24-.8.59-1.05,1.04-.24.45-.36.99-.36,1.61h-3.13c0-1.15.26-2.16.79-3.01.53-.85,1.25-1.51,2.18-1.98.93-.47,1.99-.7,3.2-.7s2.29.23,3.21.68c.92.46,1.64,1.08,2.15,1.87.51.79.77,1.7.77,2.72,0,.68-.13,1.35-.39,2.01-.26.66-.72,1.39-1.38,2.18-.65.8-1.57,1.77-2.74,2.9l-3.13,3.19v.12h7.92v2.75h-12.46ZM155.68,42.63v-2.62l7.71-12.19h2.18v3.73h-1.33l-5.19,8.23v.14h10.77v2.71h-14.14ZM164.35,46v-4.17l.04-1.17v-12.84h3.11v18.18h-3.14ZM178.5,32.36v2.49h-7.84v-2.49h7.84ZM172.6,29.1h3.21v12.8c0,.43.07.76.19.99.14.22.31.38.53.46s.46.12.73.12c.2,0,.38-.01.55-.04.17-.03.3-.06.39-.08l.54,2.51c-.17.06-.42.12-.74.2-.31.07-.7.11-1.15.12-.81.02-1.53-.1-2.18-.36-.65-.27-1.16-.69-1.54-1.26-.37-.57-.56-1.28-.55-2.13v-13.33ZM183.7,38.01v7.99h-3.21v-18.18h3.14v6.86h.16c.32-.77.81-1.38,1.48-1.82.67-.45,1.53-.67,2.57-.67.95,0,1.77.2,2.48.59.7.4,1.25.98,1.63,1.74.39.76.59,1.7.59,2.8v8.68h-3.21v-8.19c0-.92-.24-1.63-.71-2.14-.47-.51-1.12-.77-1.97-.77-.57,0-1.08.12-1.53.37-.44.24-.79.59-1.05,1.06-.25.46-.37,1.02-.37,1.68Z"/>
</svg>