<?xml version="1.0" encoding="UTF-8"?>
<svg id="Layer_1" data-name="Layer 1" xmlns="http://www.w3.org/2000/svg" viewBox="0 0 288 77">
  <defs>
    <style>
      .cls-1 {
        fill: #fff;
      }

      .cls-2 {
        stroke-dasharray: 12.56 12.56;
      }

      .cls-2, .cls-3, .cls-4 {
        fill: none;
        stroke: #fff;
        stroke-width: 1.2px;
      }

      .cls-4 {
        stroke-dasharray: 13.04 13.04;
      }
    </style>
  </defs>
  <g>
    <polyline class="cls-3" points=".6 7.1 .6 .6 7.1 .6"/>
    <line class="cls-4" x1="20.14" y1=".6" x2="274.38" y2=".6"/>
    <polyline class="cls-3" points="280.9 .6 287.4 .6 287.4 7.1"/>
    <line class="cls-2" x1="287.4" y1="19.66" x2="287.4" y2="63.62"/>
    <polyline class="cls-3" points="287.4 69.9 287.4 76.4 280.9 76.4"/>
    <line class="cls-4" x1="267.86" y1="76.4" x2="13.62" y2="76.4"/>
    <polyline class="cls-3" points="7.1 76.4 .6 76.4 .6 69.9"/>
    <line class="cls-2" x1=".6" y1="57.34" x2=".6" y2="13.38"/>
  </g>
  <path class="cls-1" d="M76.65,32.82c-.08-.78-.43-1.38-1.05-1.81-.61-.43-1.4-.65-2.38-.65-.69,0-1.28.1-1.77.31-.49.21-.87.49-1.13.84-.26.36-.39.76-.4,1.22,0,.38.09.71.26.99.18.28.42.51.72.71.3.19.64.35,1,.48.37.13.74.24,1.11.33l1.7.43c.69.16,1.35.38,1.98.65.64.27,1.21.62,1.71,1.03.51.41.91.91,1.21,1.5.3.59.44,1.27.44,2.06,0,1.07-.27,2-.82,2.81-.54.8-1.33,1.44-2.36,1.89-1.02.45-2.26.67-3.72.67s-2.64-.22-3.68-.66c-1.04-.44-1.85-1.08-2.43-1.92-.58-.84-.89-1.86-.94-3.07h3.24c.05.63.24,1.16.59,1.58.34.42.79.73,1.34.94.56.21,1.18.31,1.86.31s1.34-.11,1.88-.32c.54-.22.97-.52,1.28-.91.31-.39.46-.85.47-1.37,0-.47-.15-.86-.42-1.17-.27-.31-.65-.57-1.15-.78-.49-.21-1.05-.4-1.7-.57l-2.07-.53c-1.5-.38-2.68-.97-3.55-1.75-.86-.79-1.3-1.83-1.3-3.13,0-1.07.29-2.01.87-2.81.59-.8,1.38-1.43,2.39-1.87,1.01-.45,2.15-.67,3.42-.67s2.42.22,3.39.67c.98.44,1.74,1.06,2.3,1.86.56.79.84,1.69.86,2.72h-3.17ZM85.79,46.28c-.86,0-1.64-.15-2.33-.46-.69-.31-1.23-.78-1.63-1.38-.4-.61-.59-1.36-.59-2.25,0-.77.14-1.41.43-1.91.28-.5.67-.91,1.16-1.21.49-.3,1.04-.53,1.66-.68.62-.16,1.26-.28,1.93-.35.8-.08,1.45-.16,1.94-.22.5-.07.86-.18,1.08-.32.23-.15.35-.38.35-.68v-.05c0-.67-.2-1.19-.59-1.55-.4-.37-.97-.55-1.71-.55-.79,0-1.41.17-1.87.51-.46.34-.76.75-.92,1.22l-3-.43c.24-.83.63-1.52,1.17-2.08.54-.56,1.21-.98,2-1.26.79-.28,1.66-.43,2.61-.43.66,0,1.31.08,1.96.23.65.15,1.25.41,1.78.76.54.35.97.83,1.3,1.43.33.6.5,1.36.5,2.26v9.13h-3.09v-1.87h-.11c-.2.38-.47.73-.83,1.07-.35.33-.79.59-1.32.79-.53.2-1.15.29-1.86.29ZM86.62,43.91c.65,0,1.2-.13,1.68-.38.47-.26.84-.6,1.09-1.03.26-.43.39-.89.39-1.39v-1.61c-.1.08-.27.16-.51.23-.24.07-.5.13-.8.19-.3.05-.59.1-.88.14-.29.04-.54.08-.75.11-.48.07-.91.17-1.29.32-.38.15-.68.36-.9.62-.22.26-.33.6-.33,1.01,0,.59.22,1.04.65,1.34.43.3.98.45,1.65.45ZM98.43,38.01v7.99h-3.21v-13.64h3.07v2.32h.16c.31-.76.81-1.37,1.5-1.82.69-.45,1.55-.67,2.57-.67.94,0,1.76.2,2.46.6.7.4,1.25.99,1.63,1.75.39.76.58,1.69.58,2.78v8.68h-3.21v-8.19c0-.91-.24-1.62-.71-2.14-.47-.51-1.11-.77-1.94-.77-.56,0-1.06.12-1.5.37-.43.24-.77.59-1.02,1.06-.24.46-.36,1.02-.36,1.68ZM114.8,46v-18.18h11.65v2.76h-8.35v4.94h7.56v2.76h-7.56v7.72h-3.29ZM128.11,46v-13.64h3.12v2.27h.14c.25-.79.68-1.39,1.28-1.82.61-.43,1.3-.65,2.09-.65.18,0,.38,0,.59.03.22.01.41.03.56.06v2.96c-.14-.05-.35-.09-.65-.12-.29-.04-.57-.06-.84-.06-.59,0-1.11.13-1.58.38-.46.25-.83.59-1.09,1.04-.27.44-.4.96-.4,1.54v8.02h-3.21ZM140.7,46.28c-.86,0-1.64-.15-2.34-.46-.69-.31-1.23-.78-1.63-1.38-.4-.61-.59-1.36-.59-2.25,0-.77.14-1.41.43-1.91.28-.5.67-.91,1.16-1.21.49-.3,1.04-.53,1.66-.68.62-.16,1.26-.28,1.93-.35.8-.08,1.45-.16,1.94-.22.5-.07.86-.18,1.08-.32.23-.15.35-.38.35-.68v-.05c0-.67-.2-1.19-.6-1.55-.4-.37-.97-.55-1.71-.55-.79,0-1.41.17-1.87.51-.46.34-.76.75-.92,1.22l-3-.43c.24-.83.63-1.52,1.17-2.08.54-.56,1.21-.98,2-1.26.79-.28,1.66-.43,2.61-.43.66,0,1.31.08,1.96.23s1.25.41,1.78.76c.54.35.97.83,1.3,1.43.33.6.5,1.36.5,2.26v9.13h-3.09v-1.87h-.11c-.2.38-.47.73-.83,1.07-.35.33-.79.59-1.32.79-.53.2-1.15.29-1.85.29ZM141.54,43.91c.64,0,1.21-.13,1.68-.38.47-.26.84-.6,1.09-1.03.26-.43.39-.89.39-1.39v-1.61c-.1.08-.27.16-.51.23-.24.07-.5.13-.8.19-.3.05-.59.1-.88.14-.29.04-.54.08-.76.11-.48.07-.91.17-1.29.32-.38.15-.68.36-.9.62-.22.26-.33.6-.33,1.01,0,.59.22,1.04.65,1.34.43.3.98.45,1.65.45ZM153.35,38.01v7.99h-3.21v-13.64h3.07v2.32h.16c.31-.76.81-1.37,1.5-1.82.69-.45,1.55-.67,2.57-.67.94,0,1.76.2,2.46.6.7.4,1.25.99,1.63,1.75.39.76.58,1.69.58,2.78v8.68h-3.21v-8.19c0-.91-.24-1.62-.71-2.14-.47-.51-1.12-.77-1.94-.77-.56,0-1.06.12-1.5.37-.43.24-.77.59-1.02,1.06-.24.46-.36,1.02-.36,1.68ZM170.32,46.27c-1.36,0-2.53-.3-3.51-.9-.97-.6-1.72-1.42-2.25-2.48-.52-1.06-.78-2.28-.78-3.66s.27-2.61.8-3.67c.53-1.07,1.28-1.89,2.26-2.49.98-.6,2.13-.9,3.46-.9,1.11,0,2.09.2,2.94.61.86.4,1.54.97,2.05,1.71.51.73.8,1.59.87,2.57h-3.07c-.12-.66-.42-1.2-.89-1.64-.46-.44-1.08-.67-1.86-.67-.66,0-1.23.18-1.73.53-.5.35-.88.85-1.16,1.51-.27.66-.41,1.44-.41,2.36s.14,1.73.41,2.4c.27.66.65,1.17,1.14,1.54.5.36,1.08.53,1.75.53.47,0,.9-.09,1.27-.27.38-.18.7-.45.95-.79.25-.34.43-.76.52-1.25h3.07c-.08.96-.36,1.82-.85,2.57-.49.74-1.16,1.32-2.01,1.74-.85.41-1.84.62-2.98.62ZM177.79,46v-13.64h3.21v13.64h-3.21ZM179.41,30.43c-.51,0-.95-.17-1.31-.51-.37-.34-.55-.75-.55-1.23s.18-.9.55-1.23c.37-.34.8-.51,1.31-.51s.95.17,1.31.51c.37.34.55.75.55,1.23s-.18.89-.55,1.23c-.36.34-.8.51-1.31.51ZM194.09,35.97l-2.93.32c-.08-.3-.23-.57-.43-.83-.2-.26-.47-.47-.82-.63s-.76-.24-1.26-.24c-.67,0-1.23.15-1.69.44-.45.29-.67.67-.67,1.13,0,.4.14.72.43.97.3.25.8.45,1.49.61l2.33.5c1.29.28,2.25.72,2.88,1.32.63.6.95,1.39.96,2.37,0,.86-.26,1.62-.75,2.27-.49.65-1.18,1.16-2.05,1.53-.88.37-1.88.55-3.02.55-1.67,0-3.01-.35-4.03-1.05-1.02-.7-1.62-1.68-1.82-2.94l3.13-.3c.14.62.44,1.08.91,1.39.46.31,1.06.47,1.8.47s1.38-.16,1.84-.47c.47-.31.7-.7.7-1.16,0-.39-.15-.71-.45-.97-.3-.25-.76-.45-1.38-.59l-2.33-.49c-1.31-.27-2.28-.73-2.9-1.38-.63-.65-.94-1.47-.93-2.47,0-.84.22-1.57.68-2.18.47-.62,1.12-1.1,1.94-1.44.83-.34,1.8-.51,2.88-.51,1.6,0,2.86.34,3.77,1.02.92.68,1.49,1.6,1.71,2.76ZM201.98,46.27c-1.36,0-2.53-.3-3.51-.9-.97-.6-1.72-1.42-2.25-2.48-.52-1.06-.78-2.28-.78-3.66s.27-2.61.8-3.67c.53-1.07,1.28-1.89,2.26-2.49.98-.6,2.13-.9,3.46-.9,1.11,0,2.09.2,2.94.61.86.4,1.54.97,2.05,1.71.51.73.8,1.59.87,2.57h-3.07c-.12-.66-.42-1.2-.89-1.64-.46-.44-1.08-.67-1.86-.67-.66,0-1.23.18-1.73.53-.5.35-.88.85-1.16,1.51-.27.66-.41,1.44-.41,2.36s.14,1.73.41,2.4c.27.66.65,1.17,1.14,1.54.5.36,1.08.53,1.75.53.47,0,.9-.09,1.27-.27.38-.18.69-.45.95-.79.25-.34.43-.76.52-1.25h3.07c-.08.96-.36,1.82-.85,2.57-.49.74-1.16,1.32-2.01,1.74-.85.41-1.84.62-2.98.62ZM215.41,46.27c-1.33,0-2.49-.29-3.46-.88-.98-.59-1.73-1.41-2.27-2.46-.53-1.05-.8-2.28-.8-3.69s.27-2.64.8-3.7c.54-1.06,1.3-1.88,2.27-2.47.98-.59,2.13-.88,3.46-.88s2.49.29,3.46.88c.98.59,1.73,1.41,2.26,2.47.54,1.06.81,2.29.81,3.7s-.27,2.64-.81,3.69c-.53,1.05-1.29,1.87-2.26,2.46-.98.59-2.13.88-3.46.88ZM215.43,43.69c.72,0,1.33-.2,1.81-.59.49-.4.85-.94,1.08-1.62.24-.67.36-1.43.36-2.26s-.12-1.59-.36-2.26c-.24-.68-.6-1.22-1.08-1.62-.49-.4-1.09-.6-1.81-.6s-1.35.2-1.85.6c-.49.4-.85.94-1.09,1.62-.24.67-.35,1.43-.35,2.26s.12,1.58.35,2.26c.24.67.61,1.21,1.09,1.62.49.4,1.11.59,1.85.59Z"/>
</svg>